<?xml version="1.0" encoding="UTF-8"?>
<svg width="752pt" height="752pt" version="1.1" viewBox="0 0 752 752" xmlns="http://www.w3.org/2000/svg">
 <g>
  <path d="m519.02 362.74c-12.312-25.102-44.988-41.676-71.984-46.41-17.051-3.3164-53.516-4.7344-80.508 8.9961-21.785 11.367-33.152 24.152-34.098 38.359-1.4219 17.523 13.734 29.836 18.469 33.152 1.4219 0.94531 2.3672 1.4219 3.7891 2.3672 1.8945 0.94531 1.4219 3.3164-0.94531 3.7891-7.1055 0.47266-15.156-0.47266-23.68-2.3672-20.836-4.7344-28.414-22.258-29.363-30.781-2.3672-19.418 16.102-67.25 84.77-83.352 4.2617-0.94531 7.1055-5.6836 6.1562-9.9453-0.94531-4.2617-5.6836-7.1055-9.9453-6.1562-41.676 9.9453-65.355 30.309-77.668 45.938-14.207 17.523-21.785 38.832-19.891 55.41 1.8945 17.523 16.102 38.832 42.148 44.988 8.5234 1.8945 16.102 2.3672 23.207 2.8398 46.883 0.94531 72.93-34.57 71.512-48.305 0-1.8945 0-3.7891-0.47266-5.2109-0.47266-1.4219 0.94531-2.8398 2.3672-2.3672 2.3672 0.94531 4.2617 1.8945 6.1562 3.3164 4.2617 3.3164 6.6289 8.5234 7.1055 15.156 0.47266 11.84-17.523 28.887-35.047 38.359-34.57 19.418-105.14 35.992-146.34 9.4727-4.2617-2.3672-9.4727-1.4219-11.84 3.3164-1.8945 3.7891-0.47266 8.5234 3.3164 10.891 18.469 11.84 40.727 16.102 62.984 16.102 40.254 0 80.508-14.207 99.926-25.574 4.7344-2.3672 44.516-25.574 43.57-53.516-0.47266-11.84-5.2109-21.312-13.262-27.941-19.418-15.156-51.621-9.9453-58.723-8.5234-6.6289 0.94531-11.367 2.3672-21.785 7.1055-2.3672 0.94531-2.3672-5.2109 17.051-13.262 20.363-8.5234 47.832-9.9453 67.723-6.6289 22.258 4.2617 50.199 17.523 60.145 37.414 5.2109 10.418 4.2617 21.312-1.8945 33.625-1.8945 3.7891-0.94531 8.5234 2.3672 10.891 1.4219 0.94531 3.3164 1.4219 4.7344 1.4219 2.8398 0 5.6836-1.4219 7.1055-4.2617 9.4688-16.578 10.418-33.156 2.8398-48.309zm-140.65-0.47656c12.785-2.8398 24.152 0 25.574 6.6289 1.4219 6.6289-7.5781 14.207-19.891 17.051-12.785 2.8398-24.152 0-25.574-6.6289s7.5742-14.207 19.891-17.051z"/>
  <path d="m452.72 420.04c-2.8398-3.3164-8.0508-3.7891-11.84-0.94531-0.47266 0.47266-40.254 34.57-116.97 48.777-41.68 7.5781-99.453 0.94922-135.45-39.781-2.8398-3.3164-8.0508-3.7891-11.84-0.47266-3.3164 2.8398-3.7891 8.0508-0.47266 11.84 31.258 35.52 76.719 47.832 116.97 47.832 11.84 0 23.68-0.94531 34.098-2.8398 80.98-14.68 123.13-50.672 124.55-52.566 3.3164-3.3164 3.7891-8.5273 0.94922-11.844z"/>
  <path d="m223.51 428.09c1.4219 0.94531 2.8398 0.94531 4.2617 0.94531 2.8398 0 5.6836-1.4219 7.1055-4.2617 2.3672-3.7891 0.94531-8.9961-2.8398-11.367-1.8945-0.94531-43.098-26.52-19.418-79.09 1.8945-4.2617 0-8.9961-4.2617-10.891-4.2617-1.8945-8.9961 0-10.891 4.2617-30.312 66.305 25.57 99.93 26.043 100.4z"/>
  <path d="m176.62 414.84c0-2.3672-0.94531-4.2617-2.3672-5.6836-1.4219-1.4219-3.7891-2.3672-5.6836-2.3672-2.3672 0-4.2617 0.94531-5.6836 2.3672s-2.3672 3.7891-2.3672 5.6836c0 2.3672 0.94531 4.2617 2.3672 5.6836s3.7891 2.3672 5.6836 2.3672c2.3672 0 4.2617-0.94531 5.6836-2.3672 1.418-1.4219 2.3672-3.3164 2.3672-5.6836z"/>
  <path d="m214.04 318.22c2.3672 0 4.2617-0.94531 5.6836-2.3672s2.3672-3.7891 2.3672-5.6836c0-2.3672-0.94531-4.2617-2.3672-5.6836s-3.7891-2.3672-5.6836-2.3672c-2.3672 0-4.2617 0.94531-5.6836 2.3672-1.4219 1.4219-2.3672 3.7891-2.3672 5.6836 0 2.3672 0.94531 4.2617 2.3672 5.6836 1.4219 1.4219 3.3164 2.3672 5.6836 2.3672z"/>
  <path d="m542.7 331.96c-47.359-37.887-110.34-37.887-113.19-37.887-4.7344 0-8.0508 3.7891-8.0508 8.0508 0 4.7344 3.7891 8.0508 8.0508 8.0508 0.94531 0 60.145 0.47266 102.77 34.098 6.1562 5.2109 17.051 16.102 18.941 34.098 1.8945 19.418-8.0508 41.676-28.887 64.879-2.8398 3.3164-2.8398 8.5234 0.47266 11.84 1.4219 1.4219 3.3164 1.8945 5.6836 1.8945 2.3672 0 4.7344-0.94531 6.1562-2.8398 24.152-26.992 35.52-53.043 33.152-77.195-2.3672-23.203-17.047-37.883-25.098-44.988z"/>
  <path d="m499.13 424.78c-4.2617-1.8945-8.9961-0.47266-10.891 3.7891 0 0.47266-23.207 45.465-107.98 68.668-4.2617 1.4219-7.1055 5.6836-5.6836 9.9453 0.94531 3.7891 4.2617 6.1562 8.0508 6.1562 0.94531 0 1.4219 0 2.3672-0.47266 92.82-25.102 117.45-75.301 118.39-77.668 1.8945-3.7891 0-8.5234-4.2617-10.418z"/>
  <path d="m510.5 457.93c-2.3672 0-4.2617 0.94531-5.6836 2.3672s-2.3672 3.7891-2.3672 5.6836c0 2.3672 0.94531 4.2617 2.3672 5.6836 1.4219 1.4219 3.7891 2.3672 5.6836 2.3672 2.3672 0 4.2617-0.94531 5.6836-2.3672 1.4219-1.4219 2.3672-3.7891 2.3672-5.6836 0-2.3672-0.94531-4.2617-2.3672-5.6836-1.4219-1.418-3.3164-2.3672-5.6836-2.3672z"/>
  <path d="m356.11 505.29c-2.3672 0-4.2617 0.94531-5.6836 2.3672s-2.3672 3.7891-2.3672 5.6836c0 2.3672 0.94531 4.2617 2.3672 5.6836 1.4219 1.4219 3.7891 2.3672 5.6836 2.3672 2.3672 0 4.2617-0.94531 5.6836-2.3672 1.4219-1.4219 2.3672-3.7891 2.3672-5.6836 0-2.3672-0.94531-4.2617-2.3672-5.6836-1.418-1.4219-3.3125-2.3672-5.6836-2.3672z"/>
  <path d="m269.45 402.52c1.4219 0 2.8398-0.47266 4.2617-0.94531 3.7891-2.3672 5.2109-7.1055 2.8398-11.367-0.94531-1.4219-17.996-32.203 12.312-77.668 17.523-26.52 65.355-57.777 146.34-65.355 4.7344-0.47266 8.0508-4.2617 7.5781-8.9961-0.47266-4.7344-4.2617-8.0508-8.9961-7.5781-86.191 8.5234-138.29 43.094-158.18 72.93-35.992 54.461-13.734 93.77-12.785 95.191 1.418 2.3672 3.7891 3.7891 6.6289 3.7891z"/>
  <path d="m420.04 261.87c-4.2617 0.94531-7.1055 5.6836-5.6836 9.9453 0.94531 4.2617 5.6836 7.1055 9.9453 5.6836 0.47266 0 70.562-17.996 129.76 15.629 1.4219 0.94531 2.8398 0.94531 4.2617 0.94531 2.8398 0 5.6836-1.4219 7.1055-4.2617 2.3672-3.7891 0.94531-8.9961-3.3164-11.367-64.879-36.465-139.23-17.52-142.07-16.574z"/>
  <path d="m463.14 246.71c2.3672 0 4.2617-0.94531 5.6836-2.3672s2.3672-3.7891 2.3672-5.6836c0-2.3672-0.94531-4.2617-2.3672-5.6836s-3.7891-2.3672-5.6836-2.3672-4.2617 0.94531-5.6836 2.3672-2.3672 3.7891-2.3672 5.6836c0 2.3672 0.94531 4.2617 2.3672 5.6836 1.4219 1.418 3.3164 2.3672 5.6836 2.3672z"/>
  <path d="m584.38 289.81c-1.4219-1.4219-3.7891-2.3672-5.6836-2.3672-2.3672 0-4.2617 0.94531-5.6836 2.3672-1.8945 1.4219-2.8438 3.7891-2.8438 5.6836 0 2.3672 0.94531 4.2617 2.3672 5.6836s3.7891 2.3672 5.6836 2.3672c2.3672 0 4.2617-0.94531 5.6836-2.3672s2.3672-3.7891 2.3672-5.6836c0.47656-1.8945-0.47266-4.2617-1.8906-5.6836z"/>
 </g>
</svg>
